<mxfile host="app.diagrams.net" agent="Mozilla/5.0 (Windows NT 10.0; Win64; x64) AppleWebKit/537.36 (KHTML, like Gecko) Chrome/132.0.0.0 Safari/537.36" version="26.0.10">
  <diagram name="Page-1" id="xQfCdXBaoYpENJeM7S9G">
    <mxGraphModel dx="1105" dy="593" grid="1" gridSize="10" guides="1" tooltips="1" connect="1" arrows="1" fold="1" page="0" pageScale="1" pageWidth="850" pageHeight="1100" background="#ffffff" math="0" shadow="0">
      <root>
        <mxCell id="0" />
        <mxCell id="1" parent="0" />
        <mxCell id="vwg0xqAuFkWLNpj44O0B-2" value="" style="rounded=0;whiteSpace=wrap;html=1;fillColor=light-dark(#000000,#CCFFFF);fontColor=#ffffff;strokeColor=light-dark(#001DBC,#99FFFF);gradientColor=none;" vertex="1" parent="1">
          <mxGeometry x="150" y="70" width="670" height="120" as="geometry" />
        </mxCell>
        <mxCell id="vwg0xqAuFkWLNpj44O0B-3" value="" style="rounded=0;whiteSpace=wrap;html=1;fillColor=light-dark(#E51400,#FFCCCC);strokeColor=#B20000;fontColor=#ffffff;" vertex="1" parent="1">
          <mxGeometry x="150" y="190" width="670" height="150" as="geometry" />
        </mxCell>
        <mxCell id="vwg0xqAuFkWLNpj44O0B-4" value="" style="rounded=0;whiteSpace=wrap;html=1;fillColor=light-dark(#008A00,#CCFFCC);strokeColor=#005700;fontColor=#ffffff;" vertex="1" parent="1">
          <mxGeometry x="150" y="340" width="670" height="140" as="geometry" />
        </mxCell>
        <mxCell id="vwg0xqAuFkWLNpj44O0B-5" value="&lt;b&gt;&lt;u&gt;&lt;font style=&quot;color: light-dark(rgb(0, 0, 0), rgb(0, 0, 0));&quot; face=&quot;Verdana&quot;&gt;Physical H/W&lt;/font&gt;&lt;/u&gt;&lt;/b&gt;&lt;div&gt;&lt;font style=&quot;color: light-dark(rgb(0, 0, 0), rgb(0, 0, 0));&quot; face=&quot;Verdana&quot;&gt;Servers(Dell PowerEdge, HPE&lt;span style=&quot;background-color: transparent;&quot;&gt;&amp;nbsp;Proliant),PDUs,&lt;/span&gt;&lt;/font&gt;&lt;/div&gt;&lt;div&gt;&lt;font style=&quot;color: light-dark(rgb(0, 0, 0), rgb(0, 0, 0));&quot;&gt;&lt;font face=&quot;Verdana&quot;&gt;&lt;span style=&quot;background-color: transparent;&quot;&gt;CPUs,&lt;/span&gt;&lt;/font&gt;&lt;span style=&quot;font-family: Verdana; background-color: transparent;&quot;&gt;Racks,RAM,etc.&lt;/span&gt;&lt;/font&gt;&lt;/div&gt;" style="rounded=1;whiteSpace=wrap;html=1;fillColor=light-dark(#FFFFFF,#FFFFFF);" vertex="1" parent="1">
          <mxGeometry x="160" y="350" width="150" height="120" as="geometry" />
        </mxCell>
        <mxCell id="vwg0xqAuFkWLNpj44O0B-6" value="&lt;b&gt;&lt;u&gt;&lt;font style=&quot;color: light-dark(rgb(0, 0, 0), rgb(0, 0, 0));&quot; face=&quot;Verdana&quot;&gt;Networking&amp;nbsp;&lt;/font&gt;&lt;/u&gt;&lt;/b&gt;&lt;div&gt;&lt;font style=&quot;color: light-dark(rgb(0, 0, 0), rgb(0, 0, 0));&quot; face=&quot;Verdana&quot;&gt;FireWalls(CISCO ASA),&lt;/font&gt;&lt;/div&gt;&lt;div&gt;&lt;font style=&quot;color: light-dark(rgb(0, 0, 0), rgb(0, 0, 0));&quot; face=&quot;Verdana&quot;&gt;VRouters,Switches,Load Balancers(Citrix,F5),NICs,&lt;/font&gt;&lt;/div&gt;&lt;div&gt;&lt;font style=&quot;color: light-dark(rgb(0, 0, 0), rgb(0, 0, 0));&quot; face=&quot;Verdana&quot;&gt;AWS VPC, GCP VPC,etc.&amp;nbsp;&lt;/font&gt;&lt;/div&gt;" style="rounded=1;whiteSpace=wrap;html=1;align=center;fillColor=light-dark(#FFFFFF,#FFFFFF);" vertex="1" parent="1">
          <mxGeometry x="320" y="350" width="160" height="120" as="geometry" />
        </mxCell>
        <mxCell id="vwg0xqAuFkWLNpj44O0B-7" value="&lt;b&gt;&lt;u&gt;&lt;font style=&quot;color: light-dark(rgb(0, 0, 0), rgb(0, 0, 0));&quot; face=&quot;Verdana&quot;&gt;Storage&lt;/font&gt;&lt;/u&gt;&lt;/b&gt;&lt;div style=&quot;&quot;&gt;&lt;font style=&quot;color: light-dark(rgb(0, 0, 0), rgb(0, 0, 0));&quot; face=&quot;Verdana&quot;&gt;SAN(EMC,NetMap),&lt;/font&gt;&lt;/div&gt;&lt;div style=&quot;&quot;&gt;&lt;font style=&quot;color: light-dark(rgb(0, 0, 0), rgb(0, 0, 0));&quot; face=&quot;Verdana&quot;&gt;NAS(QNAP,Synology),&lt;/font&gt;&lt;/div&gt;&lt;div style=&quot;&quot;&gt;&lt;font style=&quot;color: light-dark(rgb(0, 0, 0), rgb(0, 0, 0));&quot; face=&quot;Verdana&quot;&gt;Virtual Disks,Block/&lt;/font&gt;&lt;/div&gt;&lt;div style=&quot;&quot;&gt;&lt;font style=&quot;color: light-dark(rgb(0, 0, 0), rgb(0, 0, 0));&quot; face=&quot;Verdana&quot;&gt;Object Storage&lt;/font&gt;&lt;/div&gt;&lt;div style=&quot;&quot;&gt;&lt;font style=&quot;color: light-dark(rgb(0, 0, 0), rgb(0, 0, 0));&quot; face=&quot;Verdana&quot;&gt;(AWS EBS,AWS S3,etc.)&lt;/font&gt;&lt;/div&gt;" style="rounded=1;whiteSpace=wrap;html=1;fillColor=light-dark(#FFFFFF,#FFFFFF);" vertex="1" parent="1">
          <mxGeometry x="490" y="350" width="150" height="120" as="geometry" />
        </mxCell>
        <mxCell id="vwg0xqAuFkWLNpj44O0B-8" value="&lt;b style=&quot;&quot;&gt;&lt;u&gt;&lt;font style=&quot;color: light-dark(rgb(0, 0, 0), rgb(0, 0, 0));&quot; face=&quot;Verdana&quot;&gt;Virtualization&lt;/font&gt;&lt;/u&gt;&lt;/b&gt;&lt;div&gt;&lt;font style=&quot;color: light-dark(rgb(0, 0, 0), rgb(0, 0, 0));&quot; face=&quot;Verdana&quot;&gt;Hypervisors(VMware VSphere, Microsoft Hyper V, KVMs),N/W ACLs, Virtual Networks(VPCs, VNETs,etc.&lt;/font&gt;&lt;/div&gt;" style="rounded=1;whiteSpace=wrap;html=1;gradientColor=none;fillColor=light-dark(#FFFFFF,#FFFFFF);" vertex="1" parent="1">
          <mxGeometry x="650" y="350" width="160" height="120" as="geometry" />
        </mxCell>
        <mxCell id="vwg0xqAuFkWLNpj44O0B-9" value="&lt;font style=&quot;color: light-dark(rgb(0, 0, 0), rgb(0, 0, 0));&quot; face=&quot;Verdana&quot;&gt;&lt;b&gt;&lt;u&gt;Operating Systems&lt;/u&gt;&lt;/b&gt;&lt;br&gt;&lt;/font&gt;&lt;div&gt;&lt;span style=&quot;background-color: transparent;&quot;&gt;&lt;font style=&quot;color: light-dark(rgb(0, 0, 0), rgb(0, 0, 0));&quot; face=&quot;Verdana&quot;&gt;Windows Server, Linux Distributions(Ubuntu, CentOS), MacOS server,&lt;/font&gt;&lt;/span&gt;&lt;/div&gt;&lt;div&gt;&lt;span style=&quot;background-color: transparent;&quot;&gt;&lt;font style=&quot;color: light-dark(rgb(0, 0, 0), rgb(0, 0, 0));&quot; face=&quot;Verdana&quot;&gt;Kernel, File Systems, etc.&lt;/font&gt;&lt;/span&gt;&lt;/div&gt;" style="rounded=1;whiteSpace=wrap;html=1;fillColor=light-dark(#FFFFFF,#FFFFFF);" vertex="1" parent="1">
          <mxGeometry x="160" y="200" width="150" height="130" as="geometry" />
        </mxCell>
        <mxCell id="vwg0xqAuFkWLNpj44O0B-10" value="&lt;b&gt;&lt;u&gt;&lt;font style=&quot;color: light-dark(rgb(0, 0, 0), rgb(0, 0, 0));&quot; face=&quot;Verdana&quot;&gt;Middleware&lt;/font&gt;&lt;/u&gt;&lt;/b&gt;&lt;div&gt;&lt;font style=&quot;color: light-dark(rgb(0, 0, 0), rgb(0, 0, 0));&quot; face=&quot;Verdana&quot;&gt;WebServers(Apache Tomcat,Nginx), Application Servers(JBoss,WebSphere),&lt;/font&gt;&lt;/div&gt;&lt;div&gt;&lt;font style=&quot;color: light-dark(rgb(0, 0, 0), rgb(0, 0, 0));&quot;&gt;&lt;font face=&quot;Verdana&quot;&gt;Message Queues,&lt;/font&gt;&lt;span style=&quot;font-family: Verdana; background-color: transparent;&quot;&gt;Config Files,&lt;/span&gt;&lt;span style=&quot;font-family: Verdana; background-color: transparent;&quot;&gt;Libraries,etc.&lt;/span&gt;&lt;/font&gt;&lt;/div&gt;" style="rounded=1;whiteSpace=wrap;html=1;align=center;fillColor=light-dark(#FFFFFF,#FFFFFF);" vertex="1" parent="1">
          <mxGeometry x="315" y="200" width="170" height="130" as="geometry" />
        </mxCell>
        <mxCell id="vwg0xqAuFkWLNpj44O0B-11" value="&lt;b&gt;&lt;u&gt;&lt;font style=&quot;color: light-dark(rgb(0, 0, 0), rgb(0, 0, 0));&quot; face=&quot;Verdana&quot;&gt;Runtime Environment&lt;/font&gt;&lt;/u&gt;&lt;/b&gt;&lt;div&gt;&lt;font style=&quot;color: light-dark(rgb(0, 0, 0), rgb(0, 0, 0));&quot; face=&quot;Verdana&quot;&gt;JRE,.NET Frame Work,&lt;/font&gt;&lt;/div&gt;&lt;div&gt;&lt;font style=&quot;color: light-dark(rgb(0, 0, 0), rgb(0, 0, 0));&quot; face=&quot;Verdana&quot;&gt;Python Interpreter,&lt;/font&gt;&lt;/div&gt;&lt;div&gt;&lt;font style=&quot;color: light-dark(rgb(0, 0, 0), rgb(0, 0, 0));&quot; face=&quot;Verdana&quot;&gt;Libraries, etc.&lt;/font&gt;&lt;/div&gt;" style="rounded=1;whiteSpace=wrap;html=1;fillColor=light-dark(#FFFFFF,#FFFFFF);" vertex="1" parent="1">
          <mxGeometry x="490" y="200" width="145" height="130" as="geometry" />
        </mxCell>
        <mxCell id="vwg0xqAuFkWLNpj44O0B-23" value="&lt;b&gt;&lt;font style=&quot;color: light-dark(rgb(0, 0, 0), rgb(0, 0, 0));&quot; face=&quot;Verdana&quot;&gt;Ready-To-Use Software Applications&lt;/font&gt;&lt;/b&gt;&lt;div&gt;&lt;font style=&quot;color: light-dark(rgb(0, 0, 0), rgb(0, 0, 0));&quot; face=&quot;Verdana&quot;&gt;(Compass,Salesforce,GMail,DropBox,Microsoft 365,etc)&lt;/font&gt;&lt;/div&gt;" style="rounded=1;whiteSpace=wrap;html=1;fillColor=light-dark(#EEEEEE,#FFFFFF);strokeColor=#36393d;" vertex="1" parent="1">
          <mxGeometry x="310" y="87.5" width="350" height="85" as="geometry" />
        </mxCell>
        <mxCell id="vwg0xqAuFkWLNpj44O0B-24" value="&lt;font style=&quot;color: light-dark(rgb(0, 0, 0), rgb(0, 0, 0));&quot; face=&quot;Verdana&quot;&gt;&lt;b&gt;&lt;u&gt;Managed Data Services&lt;/u&gt;&lt;/b&gt;&lt;/font&gt;&lt;div&gt;&lt;font style=&quot;color: light-dark(rgb(0, 0, 0), rgb(0, 0, 0));&quot; face=&quot;Verdana&quot;&gt;&amp;nbsp;Database servers(Cloud SQL,Azure SQL,RDS), DW(BigQuery,RedShift),&lt;/font&gt;&lt;/div&gt;&lt;div&gt;&lt;font style=&quot;color: light-dark(rgb(0, 0, 0), rgb(0, 0, 0));&quot; face=&quot;Verdana&quot;&gt;Data Lakes(S3),ETL(Aws Glue),etc.&lt;/font&gt;&lt;/div&gt;" style="rounded=1;whiteSpace=wrap;html=1;arcSize=14;fillColor=light-dark(#FFFFFF,#FFFFFF);" vertex="1" parent="1">
          <mxGeometry x="640" y="200" width="170" height="130" as="geometry" />
        </mxCell>
        <mxCell id="vwg0xqAuFkWLNpj44O0B-28" value="&lt;font style=&quot;color: light-dark(rgb(0, 0, 0), rgb(0, 0, 51));&quot; face=&quot;Verdana&quot;&gt;&lt;b&gt;S&lt;/b&gt;&lt;/font&gt;&lt;div&gt;&lt;font style=&quot;color: light-dark(rgb(0, 0, 0), rgb(0, 0, 51));&quot; face=&quot;Verdana&quot;&gt;&lt;b&gt;A&lt;/b&gt;&lt;/font&gt;&lt;/div&gt;&lt;div&gt;&lt;font style=&quot;color: light-dark(rgb(0, 0, 0), rgb(0, 0, 51));&quot; face=&quot;Verdana&quot;&gt;&lt;b&gt;A&lt;/b&gt;&lt;/font&gt;&lt;/div&gt;&lt;div&gt;&lt;font style=&quot;color: light-dark(rgb(0, 0, 0), rgb(0, 0, 51));&quot; face=&quot;Verdana&quot;&gt;&lt;b&gt;S&lt;/b&gt;&lt;/font&gt;&lt;/div&gt;" style="rounded=0;whiteSpace=wrap;html=1;fillColor=light-dark(#FFFFFF,#FFFF33);" vertex="1" parent="1">
          <mxGeometry x="120" y="70" width="30" height="120" as="geometry" />
        </mxCell>
        <mxCell id="vwg0xqAuFkWLNpj44O0B-29" value="&lt;font style=&quot;color: light-dark(rgb(0, 0, 0), rgb(102, 0, 51));&quot; face=&quot;Verdana&quot;&gt;&lt;b&gt;P&lt;/b&gt;&lt;/font&gt;&lt;div&gt;&lt;font style=&quot;color: light-dark(rgb(0, 0, 0), rgb(102, 0, 51));&quot; face=&quot;Verdana&quot;&gt;&lt;b&gt;A&lt;/b&gt;&lt;/font&gt;&lt;/div&gt;&lt;div&gt;&lt;font style=&quot;color: light-dark(rgb(0, 0, 0), rgb(102, 0, 51));&quot; face=&quot;Verdana&quot;&gt;&lt;b&gt;A&lt;/b&gt;&lt;/font&gt;&lt;/div&gt;&lt;div&gt;&lt;font style=&quot;color: light-dark(rgb(0, 0, 0), rgb(102, 0, 51));&quot; face=&quot;Verdana&quot;&gt;&lt;b&gt;S&lt;/b&gt;&lt;/font&gt;&lt;/div&gt;" style="rounded=0;whiteSpace=wrap;html=1;fillColor=light-dark(#FFFFFF,#CCFFE6);shadow=0;labelBackgroundColor=none;" vertex="1" parent="1">
          <mxGeometry x="120" y="190" width="30" height="150" as="geometry" />
        </mxCell>
        <mxCell id="vwg0xqAuFkWLNpj44O0B-30" value="&lt;b&gt;&lt;font style=&quot;color: light-dark(rgb(0, 0, 0), rgb(153, 0, 0));&quot; face=&quot;Verdana&quot;&gt;I&lt;/font&gt;&lt;/b&gt;&lt;div&gt;&lt;b&gt;&lt;font style=&quot;color: light-dark(rgb(0, 0, 0), rgb(153, 0, 0));&quot; face=&quot;Verdana&quot;&gt;A&lt;/font&gt;&lt;/b&gt;&lt;/div&gt;&lt;div&gt;&lt;b&gt;&lt;font style=&quot;color: light-dark(rgb(0, 0, 0), rgb(153, 0, 0));&quot; face=&quot;Verdana&quot;&gt;A&lt;/font&gt;&lt;/b&gt;&lt;/div&gt;&lt;div&gt;&lt;b&gt;&lt;font style=&quot;color: light-dark(rgb(0, 0, 0), rgb(153, 0, 0));&quot; face=&quot;Verdana&quot;&gt;S&lt;/font&gt;&lt;/b&gt;&lt;/div&gt;" style="rounded=0;whiteSpace=wrap;html=1;fillColor=light-dark(#FFFFFF,#FF99FF);" vertex="1" parent="1">
          <mxGeometry x="120" y="340" width="30" height="140" as="geometry" />
        </mxCell>
      </root>
    </mxGraphModel>
  </diagram>
</mxfile>
